<?xml version="1.0" encoding="utf-8"?>
<svg xmlns="http://www.w3.org/2000/svg" height="48" width="48" viewBox="0 0 48 48">
  <g>
    <rect height="48" width="48" fill="#0078D7" />
    <path id="path1" transform="rotate(0,24,24) translate(12.284562766552,11) scale(0.8125,0.8125)  " fill="#FFFFFF" d="M6.576047,25.865999L24.788991,25.865999 24.788991,27.826996 6.576047,27.826996z M2.3830557,0L24.788991,0 24.788991,24.032 2.5300284,24.032 2.5300284,29.849999 26.813039,29.849999 26.813039,3.6679984 28.838,3.6679984 28.838,29.849999 28.838,32 26.813039,32 2.5290518,32 2.5290518,29.849999 0,29.849999 0,24.032 0,23.399996 0,1.9830012C9.2266419E-08,1.9830012 0.40600577,0.88899971 0.75805667,0.53700258 1.1800533,0.11600491 2.3830557,0 2.3830557,0z" />
  </g>
</svg>

