<?xml version="1.0" encoding="utf-8"?>
<svg xmlns="http://www.w3.org/2000/svg" height="48" width="48" viewBox="0 0 48 48">
  <g>
    <rect height="48" width="48" fill="#0078D7" />
    <path id="path1" transform="rotate(0,24,24) translate(12.7476867437363,11) scale(0.8125,0.8125)  " fill="#FFFFFF" d="M0,23.123001L27.698002,23.123001 27.698002,26.082001 18.984987,26.082001 18.984987,32 8.5469981,32 8.5469981,26.082001 0,26.082001z M8.6289683,10.671997L11.612977,10.671997 13.971987,16.794006 16.384951,10.671997 19.354982,10.671997C22.033999,10.671997,24.204958,12.843002,24.204958,15.520996L24.204958,21.026993 20.588991,21.026993 20.588991,19.054993C20.588991,18.714996 20.311953,18.438995 19.971987,18.438995 19.630983,18.438995 19.354982,18.714996 19.354982,19.054993L19.354982,21.026993 18.095949,21.026993 18.095949,18.363998 18.10895,18.358002C18.612002,18.113998,18.957949,17.595993,18.957949,16.996002L18.957949,14.798996C18.957949,13.964996 18.286989,13.287003 17.457949,13.287003 16.630007,13.287003 15.957949,13.964996 15.957949,14.798996L15.957949,16.996002C15.957949,17.595993,16.305971,18.113998,16.807985,18.358002L16.821962,18.365005 16.821962,21.026993 8.5879527,21.026993 8.5879527,19.054993C8.5879527,18.714996 8.3119517,18.438995 7.9719859,18.438995 7.6309825,18.438995 7.354981,18.714996 7.354981,19.054993L7.354981,21.026993 3.7810064,21.026993 3.7810064,15.520996C3.7810062,12.843002,5.9519659,10.671997,8.6289683,10.671997z M14.000002,0C16.571962,0 18.656984,2.0859985 18.656984,4.6569977 18.656984,7.2299957 16.571962,9.3150024 14.000002,9.3150024 11.427003,9.3150024 9.3429576,7.2299957 9.3429576,4.6569977 9.3429576,2.0859985 11.427003,0 14.000002,0z" />
  </g>
</svg>

