<?xml version="1.0" encoding="utf-8"?>
<svg xmlns="http://www.w3.org/2000/svg" height="48" width="48" viewBox="0 0 48 48">
  <g>
    <path id="path1" transform="rotate(0,24,24) translate(11,13.4371134417573) scale(0.81249951571255,0.81249951571255)  " fill="#666666" d="M13.099005,15.831011L13.173005,15.831011C15.976006,15.831011,17.523007,18.208001,18.004008,20.915989L18.249007,22.827981 18.249007,26.000967 9.1250038,26.000967 0,26.000967 0,22.827981 0.24499989,20.915989C0.71100044,18.293001 2.1810007,15.98701 4.8200026,15.845011 5.9080029,16.964006 7.3580031,17.654004 8.9530039,17.654004 10.555004,17.654004 12.010005,16.958006 13.099005,15.831011z M18.827027,10.309859L18.901032,10.309859C19.990021,11.436821 21.445036,12.132871 23.047025,12.132871 24.642024,12.132871 26.092005,11.442802 27.180017,10.323775 29.819021,10.465866 31.289021,12.771792 31.755025,15.394858L32.000018,17.30686 32.000018,20.479858 22.875028,20.479858 19.467011,20.479858C18.815034,17.104833 16.860019,14.86983 14.226019,14.401809 14.883031,12.131772 16.37302,10.309859 18.827027,10.309859z M8.7649922,5.5209818C11.349993,5.5209818 13.445994,7.9249854 13.445994,10.889991 13.445994,13.854995 11.565994,15.953998 8.9809923,15.953998 6.3959913,15.953998 4.2999907,13.550994 4.2999907,10.58499 4.2999907,7.6199849 6.1799908,5.5209818 8.7649922,5.5209818z M23.234998,0C25.819999,0 27.7,2.0990028 27.7,5.0640078 27.7,8.0300126 25.603999,10.433016 23.018998,10.433016 20.433997,10.433016 18.553996,8.334013 18.553996,5.3690081 18.553996,2.4040036 20.649997,0 23.234998,0z" />
  </g>
</svg>

