<?xml version="1.0" encoding="utf-8"?>
<svg xmlns="http://www.w3.org/2000/svg" height="48" width="48" viewBox="0 0 48 48">
  <g>
    <rect height="48" width="48" fill="#0078D7" />
    <path id="path1" transform="rotate(0,24,24) translate(11,11.1568131446838) scale(0.8125,0.8125)  " fill="#FFFFFF" d="M14.070984,11.164007C14.324005,11.156012,14.593994,11.238989,14.85498,11.42301L20.885986,14.974007C21.628998,15.497993,21.638977,16.370003,20.910004,16.915016L14.975983,20.599009C14.565002,20.904001 14.106995,20.894999 13.737,20.672007 13.11499,20.298014 13.095978,19.45701 13.089996,18.72999L13.043976,13.159003C13.039001,12.449987 13.011993,11.601995 13.641998,11.275 13.774994,11.207006 13.919983,11.169012 14.070984,11.164007z M18.384979,0C18.421997,0.0010071075 18.457977,-0.0020141342 18.496002,0.0039978028 26.145996,1.2030035 31.998993,7.817997 32,15.807014 31.998993,23.794018 26.145996,30.410995 18.496002,31.610001 18.457977,31.616013 18.421997,31.613022 18.384979,31.613998L18.384979,26.455C18.442993,26.434004 18.5,26.413008 18.561005,26.397993 23.346985,25.242016 26.899994,20.947 26.910004,15.807014 26.899994,10.666997 23.346985,6.3719816 18.561005,5.2160058 18.5,5.2019982 18.442993,5.1810021 18.384979,5.160006z M13.613983,0L13.613983,5.160006C13.556976,5.1810021 13.498993,5.2019982 13.440002,5.2160058 8.6539917,6.3719816 5.1000061,10.666997 5.0899963,15.807014 5.1000061,20.948008 8.6539917,25.242016 13.440002,26.397993 13.498993,26.413008 13.556976,26.432997 13.613983,26.453993L13.613983,31.613998C13.578003,31.613022 13.541992,31.616013 13.503998,31.610001 5.8519897,30.410995 0.0019836426,23.794018 0,15.807014 0.0019836426,7.817997 5.8519897,1.2030035 13.503998,0.0039978028 13.541992,-0.0020141342 13.578003,0.0010071075 13.613983,0z" />
  </g>
</svg>

