<?xml version="1.0" encoding="utf-8"?>
<svg xmlns="http://www.w3.org/2000/svg" height="48" width="48" viewBox="0 0 48 48">
  <g>
    <path id="path1" transform="rotate(0,24,24) translate(11.0012180411812,11) scale(0.812474624115046,0.812474624115046)  " fill="#909090" d="M15.998013,11.688C13.620015,11.688 11.685015,13.623001 11.685015,16.001002 11.685015,18.379004 13.620015,20.314006 15.998013,20.314006 18.376012,20.314006 20.31101,18.379004 20.31101,16.001002 20.31101,13.623001 18.376012,11.688 15.998013,11.688z M15.998013,9.6879977C19.479011,9.6879977 22.31101,12.52 22.31101,16.001002 22.31101,19.482005 19.479011,22.314006 15.998013,22.314006 12.517015,22.314006 9.6850171,19.482005 9.6850171,16.001002 9.6850171,12.52 12.517015,9.6879977 15.998013,9.6879977z M16.10461,1.8826035C15.624896,1.8827665,15.43161,1.8907381,15.40443,1.8916823L15.40443,1.8856854C15.228406,1.8876845 15.061416,1.8886763 14.832415,1.8926742 14.614431,1.8966873 14.494437,1.9446766 14.455436,1.9876764 14.402428,2.0456756 14.388421,2.1796797 14.388421,2.1806871L14.384423,5.4887208 13.555453,5.588713C13.538424,5.5907272 11.840447,5.8057259 10.224469,6.8117331 8.6044927,7.800742 7.8565164,8.8477505 7.8494974,8.8577603L7.3574987,9.5577649 3.4765637,7.353731C3.2715493,7.2137302 3.2145734,7.1697386 3.0295782,7.4317349 2.3435817,8.5907592 1.854574,9.4647616 1.8525902,9.4697665 1.8245756,9.5937604 1.9695628,9.6687583 2.0875729,9.7297639L5.9025298,11.898793 5.6585446,12.632795C5.6515255,12.652799 4.9705339,14.717824 5.0995303,16.267829 5.2705489,18.334851 5.5445323,19.072867 5.6235414,19.249871L5.9765339,20.030869 2.2845614,22.133904C2.0935848,22.2259 1.917592,22.359904 1.8845727,22.457898 1.8665672,22.506894 1.9195756,22.615903 1.9355667,22.647902 2.5745666,23.800914 3.2025497,24.81092 3.2025497,24.81092 3.1635487,24.730931 3.4235554,24.721928 3.8665433,24.401919 5.4185267,23.495917 6.6195317,22.826905 6.6195317,22.826905L7.2635055,22.4689 7.7655139,23.007907C8.1474977,23.415915 9.3304973,24.576922 10.214489,25.032922 11.558467,25.836932 12.080465,26.04894 13.634431,26.398949L14.355431,26.563945 14.355431,27.31795C14.355431,28.133967 14.332421,29.95398 14.332421,29.95398 14.338433,29.904982 14.430442,30.066987 14.473442,30.094989 15.056411,30.115985 15.811408,30.118991 16.3414,30.116977 16.723415,30.114978 17.12441,30.108981 17.454393,30.095981 17.565383,30.059983 17.895397,29.881972 17.910381,29.804976 17.898387,29.779982 18.119394,28.093959 18.119394,27.31795L18.119394,26.563945 18.600376,26.398949C20.119369,26.057942 20.561351,25.752931 21.807338,25.086923 22.793319,24.576922 23.912324,23.415915 24.2933,23.007907L24.764303,22.469907 25.391309,22.826905C25.391309,22.826905 26.585296,23.495917 28.058271,24.349915 28.526252,24.682927 28.826267,24.739919 28.843265,24.741917 28.875246,24.684926 29.46426,23.727916 30.075244,22.622907 30.079242,22.615903 30.130235,22.506894 30.113239,22.456906 30.07323,22.347895 29.863241,22.205895 29.801231,22.178903L26.019292,20.030869 26.372285,19.249871C26.451295,19.072867 26.725278,18.334851 26.89529,16.268836 27.024286,14.717824 26.343294,12.652799 26.337282,12.632795L26.09229,11.898793 29.876241,9.7467622C29.982227,9.6907624 30.18123,9.5877637 30.098255,9.3797539 30.091236,9.3757561 29.615259,8.5287465 28.925264,7.369738 28.780246,7.1717375 28.722263,7.2157444 28.626257,7.2817396L24.631309,9.5667676 24.141325,8.8527554C24.140317,8.8507565 23.50733,7.975747 21.905328,6.9937419 20.245346,5.962725 18.385381,5.5807174 18.365392,5.5767192L17.612381,5.4257168 17.604385,2.2546774C17.60939,2.003683 17.541399,1.899678 17.162405,1.8926742 16.932395,1.8886763 16.763391,1.8876845 16.586393,1.8856854L16.586393,1.8916823C16.568418,1.8906752 16.461393,1.8856856 16.204408,1.8826793 16.169845,1.8826165 16.136592,1.8825927 16.10461,1.8826035z M15.953613,4.0931066E-06C16.121204,7.8778002E-05 16.254659,0.0011552494 16.360412,0.0026544366 16.591398,0.0036615323 16.861414,0.0056604551 17.194387,0.010665551 18.110391,0.025664942 18.645389,0.40466681 18.932373,0.7196725 19.524375,1.3686817 19.49636,2.1706771 19.484367,2.3246859L19.489372,3.9197038C20.296369,4.1497019 21.628355,4.6067079 22.893323,5.3917197 23.963317,6.0477174 24.681297,6.6727241 25.122301,7.1207422L27.588274,5.7177275C27.574268,5.7117151 28.178264,5.2567085 29.016265,5.3677176 29.418239,5.4227108 30.001239,5.6367177 30.502241,6.3457249 31.286228,7.6567434 31.786222,8.5517577 31.786222,8.5517577 32.136222,9.3767632 32.104213,10.70977 30.775217,11.400787L28.341257,12.784789C28.568273,13.653802 28.878267,15.129816 28.771244,16.424844 28.678258,17.558843 28.538244,18.497863 28.361276,19.197867L30.64323,20.497886C30.720226,20.526877 31.568237,20.934886 31.885219,21.824895 32.018215,22.20089 32.101223,22.797896 31.733213,23.50991 31.04322,24.756917 30.390243,25.80594 30.390243,25.80594 29.928243,26.423943 28.701267,27.138947 27.026269,25.926944 26.263279,25.487929 25.559307,25.088921 25.082292,24.820929 24.502313,25.380933 23.534307,26.245948 22.645341,26.705943 21.499359,27.31795 20.772346,27.706962 19.498374,28.051967 19.508354,28.898976 19.52938,29.913987 19.52938,29.914979 19.382379,30.990994 18.688386,31.978003 17.489397,31.978003 17.345386,31.983008 17.1704,31.985999 17.004386,31.989005L17.004386,31.996009C17.004386,31.996009 16.630397,32.000007 16.132417,32.000007 16.117404,32.000007 16.097415,32.000007 16.082401,32.000007 16.013401,32.000007 15.937413,32.000998 15.872411,32.000998 15.372417,32.000998 14.989426,31.996009 14.989426,31.996009L14.989426,31.989005C14.811419,31.985007,14.626424,31.983008,14.469413,31.976996L14.468437,31.976996C13.306432,31.976996 12.613448,30.990994 12.476456,30.072984 12.468461,29.95398 12.487443,28.911977 12.497451,28.058955 11.251464,27.740958 10.534462,27.416949 9.2974782,26.675944 8.4444909,26.236945 7.4895163,25.379926 6.9125271,24.821921 6.4265104,25.094933 5.7005363,25.508941 4.8905483,25.97893 3.2915686,27.141953 2.0675841,26.423943 1.6525803,25.875934 1.604577,25.80594 0.95160017,24.756917 0.27558283,23.533913 -0.10438696,22.797896 -0.021410653,22.199899 0.11161392,21.824895 0.42859618,20.934886 1.2745943,20.526877 1.4415843,20.453877L3.6345513,19.198859C3.4565444,18.498855 3.3175691,17.55985 3.2235761,16.423837 3.1165522,15.129816 3.4265461,13.653802 3.6545706,12.785796L1.1885971,11.382782C-0.10939178,10.70977 -0.14140434,9.3767632 0.16160088,8.6497506 0.20859758,8.5517577 0.70859156,7.6567434 1.452571,6.4067301 1.9935799,5.6377248 2.5775571,5.4227108 2.9795604,5.3677176 3.8085606,5.2587227 4.4215598,5.7117151 4.5365487,5.8047188L6.8615332,7.1177362C7.3335123,6.6137332 8.1145091,5.8947161 9.2365041,5.2087191 10.465463,4.4447035 11.713464,4.0597047 12.505447,3.8736981L12.509445,2.2516864C12.500442,2.1716841 12.470444,1.3696735 13.063454,0.72066438 13.350439,0.40466681 13.885436,0.025664942 14.80141,0.010665551 15.300157,0.0025399994 15.674296,-0.00011958837 15.953613,4.0931066E-06z" />
  </g>
</svg>

