<?xml version="1.0" encoding="utf-8"?>
<svg xmlns="http://www.w3.org/2000/svg" height="48" width="48" viewBox="0 0 48 48">
  <g>
    <rect height="48" width="48" fill="#0078D7" />
    <path id="path1" transform="rotate(0,24,24) translate(11,11) scale(0.8125,0.8125)  " fill="#FFFFFF" d="M28.889999,20.665009L28.889999,20.764999 29.090004,20.665009 28.990005,20.665009z M16.150002,0C23.874001,0,30.094002,6.0190125,30.495003,13.542007L30.495003,13.643005C31.398003,14.345001 32,15.549011 32,16.853012 32,18.35701 31.297005,19.661011 30.194,20.263L30.094002,20.263C29.592003,21.969009,27.183998,27.887009,19.159,29.292007L19.059002,29.292007 19.059002,29.391998C18.758003,30.897003 17.454002,32 15.949001,32 14.144001,32 12.739002,30.596008 12.739002,28.790009 12.739002,26.984009 14.144001,25.580002 15.949001,25.580002 17.253002,25.580002 18.357002,26.281998 18.858002,27.386002L18.959003,27.486008C19.962002,27.285004,23.874001,26.182007,26.382004,23.072006L26.482002,22.972 26.382004,22.972C25.078003,22.871002,23.973999,21.868011,23.973999,20.464005L23.973999,13.041C23.973999,11.636002 25.078003,10.533005 26.482002,10.533005 26.884003,10.533005 27.285004,10.633011 27.686005,10.834 25.479004,6.2190094 21.065002,3.0090027 15.949001,3.0090027 10.532001,3.0090027 5.9180031,6.6210022 3.9120026,11.737L3.9120026,11.837006 4.012001,11.636002C4.413002,11.235001 5.1160011,10.934006 5.8180008,10.934006 7.2220001,10.934006 8.3260002,12.03801 8.3260002,13.442001L8.3260002,20.865005C8.3260002,22.270004 7.2220001,23.373001 5.8180008,23.373001 4.5140038,23.373001 3.4100037,22.37001 3.3100014,20.966003L3.3100014,20.865005 3.2100029,20.865005C1.4040031,20.764999 0,19.060013 0,16.953003 0,15.447998 0.80200195,14.144012 1.9050026,13.442001L2.0060005,13.442001 2.0060005,13.141006C2.507,5.8180084,8.7270012,0,16.150002,0z" />
  </g>
</svg>

