<svg xmlns="http://www.w3.org/2000/svg" version="1.0" width="750" height="461" preserveAspectRatio="xMidYMid meet"><rect id="backgroundrect" width="100%" height="100%" x="0" y="0" fill="none" stroke="none"/>


<g class="currentLayer"><title>Layer 1</title><g transform="translate(0,461) scale(0.10000000149011612,-0.10000000149011612) " fill="#ffffff" stroke="none" id="svg_1" class="" fill-opacity="1">
<path d="M0 2305 l0 -2305 3750 0 3750 0 0 2305 0 2305 -3750 0 -3750 0 0 -2305z m3936 680 c601 -104 1065 -568 1169 -1169 19 -114 19 -328 0 -442 -104 -601 -568 -1065 -1169 -1169 -114 -19 -328 -19 -442 0 -601 104 -1065 568 -1169 1169 -19 114 -19 328 0 442 103 597 564 1061 1160 1168 109 19 340 20 451 1z" id="svg_2" fill="#ffffff" fill-opacity="1"/>
</g><g transform="translate(0,461) scale(0.10000000149011612,-0.10000000149011612) " fill="#0072C6" stroke="none" id="svg_3" class="selected" fill-opacity="1">
<path d="M0 3105 l0 -1505 1104 0 1103 0 6 123 c29 586 437 1115 1014 1314 l83 28 0 103 0 102 38 0 38 0 29 -90 c17 -54 33 -89 40 -86 6 2 41 7 77 11 l65 7 24 76 c25 76 25 77 62 80 l37 3 0 -81 0 -81 83 5 c45 3 102 8 127 11 39 6 51 2 90 -23 25 -17 59 -33 77 -37 28 -5 36 -2 60 25 51 56 163 52 163 -6 0 -19 -4 -24 -17 -20 -58 17 -70 17 -94 -3 -23 -19 -23 -20 -4 -27 11 -4 59 -24 108 -44 l87 -38 0 59 c0 56 -1 59 -25 59 -20 0 -25 5 -25 25 0 20 5 25 24 25 22 0 25 5 28 47 3 41 6 47 31 54 l27 7 0 -54 0 -54 40 0 c36 0 40 -2 40 -25 0 -22 -4 -25 -40 -25 l-40 0 0 -77 1 -78 82 -52 c150 -95 315 -257 405 -396 29 -46 45 -59 75 -68 32 -8 37 -14 37 -39 0 -22 -4 -28 -15 -24 -10 4 -2 -21 24 -77 20 -46 43 -95 49 -109 8 -20 11 4 11 113 l1 137 30 0 30 0 0 -185 c0 -158 -2 -185 -15 -185 -8 0 -15 -1 -15 -3 0 -2 9 -43 20 -93 12 -49 23 -144 27 -211 l6 -123 1143 0 1144 0 0 1505 0 1505 -3750 0 -3750 0 0 -1505z m2322 678 c362 -362 658 -662 658 -668 0 -6 -297 -307 -660 -670 l-660 -660 -665 665 -665 665 662 662 c365 365 665 663 668 663 3 0 301 -296 662 -657z m3962 421 c12 -5 16 -20 16 -59 0 -47 -2 -53 -19 -48 -10 3 -28 0 -40 -6 -17 -10 -21 -21 -21 -66 l0 -55 70 0 70 0 0 53 0 53 53 17 c30 9 59 17 65 17 8 0 12 -23 12 -70 l0 -70 40 0 40 0 0 -55 0 -55 -40 0 -40 0 0 -128 c0 -139 5 -152 52 -152 27 0 28 -2 28 -49 0 -35 -4 -51 -16 -55 -31 -12 -120 -6 -142 10 -45 31 -52 63 -52 224 l0 150 -70 0 -70 0 0 -190 0 -190 -70 0 -70 0 0 190 0 190 -25 0 c-24 0 -25 3 -25 55 0 51 2 55 24 55 22 0 24 5 31 69 4 39 15 82 26 100 30 50 123 84 173 65z m-2165 -50 c25 -32 27 -62 5 -92 -22 -32 -57 -43 -94 -31 -35 13 -50 35 -50 78 0 69 96 100 139 45z m-610 -31 c8 -32 80 -345 94 -408 6 -28 10 -13 42 140 15 72 36 169 47 218 l20 87 94 0 94 0 0 -340 0 -340 -65 0 -65 0 -2 217 -3 217 -49 -217 -49 -218 -65 3 -65 3 -53 215 -53 215 0 -217 -1 -218 -60 0 -60 0 0 340 0 340 95 0 94 0 10 -37z m3301 -48 c53 -27 75 -100 47 -155 -17 -34 -74 -70 -112 -70 -47 0 -97 38 -114 85 -12 35 -11 45 2 77 28 68 111 97 177 63z m-2357 -106 l37 -10 0 -59 c0 -33 -2 -60 -3 -60 -2 0 -18 7 -34 15 -38 19 -74 8 -100 -32 -13 -20 -18 -47 -18 -104 0 -99 21 -134 81 -133 22 0 47 4 57 8 15 7 17 2 17 -46 0 -49 -3 -56 -25 -66 -36 -16 -120 -15 -153 2 -97 51 -142 183 -108 316 25 95 75 153 149 170 46 11 57 11 100 -1z m351 5 c12 -5 16 -21 16 -65 l0 -59 -39 0 c-23 0 -48 -8 -62 -19 -23 -19 -24 -25 -27 -185 l-3 -166 -70 0 -69 0 2 243 3 242 65 0 c60 0 64 -2 70 -25 5 -21 7 -22 13 -7 4 10 21 24 39 32 38 17 41 17 62 9z m320 -27 c58 -32 90 -99 95 -198 8 -178 -64 -279 -198 -279 -86 0 -135 30 -173 105 -25 48 -35 181 -19 241 38 141 171 200 295 131z m409 17 c13 -4 17 -17 17 -61 0 -53 -1 -55 -22 -48 -13 4 -43 8 -68 9 -43 1 -45 0 -48 -30 -3 -28 2 -34 61 -71 76 -48 102 -92 94 -161 -10 -87 -69 -132 -177 -132 -95 0 -114 13 -118 79 -3 48 -1 53 15 48 85 -28 102 -31 128 -19 42 19 29 49 -45 102 -74 53 -95 86 -94 152 1 71 42 120 117 139 30 7 102 4 140 -7z m332 5 c98 -27 147 -106 147 -238 1 -172 -67 -261 -201 -261 -99 0 -158 49 -186 156 -43 165 17 316 138 344 46 11 57 11 102 -1z m-1745 -244 l0 -245 -65 0 -65 0 0 245 0 245 65 0 65 0 0 -245z m1318 -702 l2 -273 -30 0 -30 0 0 276 0 275 28 -3 27 -3 3 -272z m772 166 l0 -111 31 26 c57 48 134 24 165 -50 31 -74 13 -226 -33 -276 -37 -41 -120 -41 -150 -1 -12 15 -13 14 -13 -6 0 -18 -5 -22 -27 -19 l-28 3 -3 260 c-1 143 0 265 3 272 2 7 16 13 30 13 l25 0 0 -111z m338 -166 l2 -273 -30 0 -30 0 0 276 0 275 28 -3 27 -3 3 -272z m-1770 170 c12 -43 36 -136 55 -206 l33 -129 38 139 c76 280 73 273 106 273 17 0 30 -4 30 -10 0 -12 -140 -491 -146 -502 -3 -5 -18 -8 -33 -8 -28 0 -28 0 -96 247 -37 136 -70 253 -72 260 -4 9 6 13 30 13 l35 0 20 -77z m462 -76 c48 -24 60 -68 60 -224 l0 -143 -30 0 c-24 0 -30 4 -30 22 l0 21 -24 -22 c-50 -47 -136 -22 -155 45 -24 86 17 139 128 164 52 12 53 13 47 43 -4 17 -11 36 -16 41 -15 15 -77 10 -105 -8 -33 -21 -35 -21 -35 13 0 24 6 32 38 44 45 19 89 21 122 4z m780 -2 c16 -8 34 -24 40 -34 6 -11 10 -88 10 -175 l0 -156 -25 0 c-14 0 -28 7 -31 15 -5 12 -9 12 -30 -1 -63 -42 -141 -4 -151 73 -10 75 29 117 135 143 37 10 42 14 42 40 0 42 -34 63 -83 49 -20 -5 -39 -14 -42 -19 -13 -21 -26 -8 -23 23 2 27 9 34 38 44 48 16 86 16 120 -2z m789 0 c38 -19 61 -71 61 -139 l0 -56 -101 0 c-88 0 -100 -2 -95 -16 3 -9 6 -24 6 -35 0 -11 11 -31 25 -44 28 -29 75 -33 118 -11 26 15 27 14 27 -14 0 -37 -27 -52 -93 -52 -57 0 -91 20 -122 73 -31 52 -28 179 4 236 38 66 108 90 170 58z m-1229 -137 c0 -118 3 -145 17 -160 24 -27 68 -23 92 8 19 24 21 40 21 160 l0 134 30 0 30 0 0 -185 0 -185 -30 0 c-24 0 -30 4 -30 20 0 21 0 21 -21 1 -26 -24 -63 -31 -105 -19 -55 15 -64 44 -64 218 l0 150 30 0 30 0 0 -142z m710 -678 l0 -270 -30 0 -30 0 0 270 0 270 30 0 30 0 0 -270z m-1100 236 c19 -23 8 -61 -18 -64 -45 -7 -72 46 -34 67 24 14 38 13 52 -3z m280 -156 c48 -33 65 -77 65 -165 0 -63 -5 -89 -22 -121 -53 -99 -185 -98 -233 2 -27 56 -29 160 -5 222 34 83 124 112 195 62z m343 8 c30 -16 37 -53 37 -209 l0 -149 -30 0 -30 0 0 142 c0 156 -7 178 -60 178 -54 0 -65 -27 -68 -181 l-4 -139 -29 0 -29 0 0 185 0 185 30 0 c24 0 30 -4 30 -22 l0 -21 23 20 c34 32 81 36 130 11z m269 11 c61 -16 72 -48 76 -221 l4 -148 -36 0 c-26 0 -36 4 -36 16 0 13 -5 12 -26 -5 -51 -40 -124 -17 -144 44 -29 87 21 152 128 170 39 6 42 9 42 39 0 18 -5 37 -12 44 -16 16 -67 15 -98 -3 -36 -20 -40 -19 -40 15 0 26 5 31 48 44 59 18 50 18 94 5z" id="svg_4" fill="#0072C6"/>
<path d="M810 3140 l0 -390 60 0 60 0 2 323 c3 305 4 318 17 247 7 -41 40 -186 73 -322 l60 -248 67 0 66 0 63 278 c34 152 65 296 68 320 15 98 19 24 16 -278 l-3 -320 60 0 61 0 0 390 0 390 -98 0 -98 0 -53 -242 c-29 -134 -55 -267 -58 -296 -7 -66 -18 -74 -27 -19 -7 41 -98 446 -117 520 l-10 37 -104 0 -105 0 0 -390z" id="svg_5" fill="#0072C6"/>
<path d="M1550 3520 c0 -9 148 -609 181 -732 l10 -38 78 0 78 0 47 183 c26 100 71 275 100 390 l53 207 -73 0 c-41 0 -74 -3 -74 -7 0 -5 -24 -123 -54 -263 -30 -140 -58 -276 -61 -302 -8 -50 -25 -57 -25 -10 1 15 -25 152 -57 305 l-58 277 -72 0 c-43 0 -73 -4 -73 -10z" id="svg_6" fill="#0072C6"/>
<path d="M2160 3140 l0 -390 70 0 70 0 0 135 0 135 56 0 c162 0 258 101 257 270 0 116 -37 184 -118 221 -33 15 -66 19 -187 19 l-148 0 0 -390z m257 250 c21 -13 35 -31 42 -57 32 -112 -17 -193 -116 -193 l-43 0 0 135 0 135 43 0 c24 0 56 -8 74 -20z" id="svg_7" fill="#0072C6"/>
<path d="M6679 4034 c-35 -37 -33 -98 4 -130 29 -25 100 -34 112 -14 3 6 -1 10 -10 10 -8 0 -21 11 -27 25 -6 14 -15 25 -20 25 -4 0 -8 -11 -8 -25 0 -19 -5 -25 -20 -25 -19 0 -21 5 -18 73 l3 72 42 3 c33 2 44 -1 57 -19 13 -19 14 -26 3 -43 -13 -21 -3 -76 15 -76 13 0 28 37 28 68 0 75 -108 113 -161 56z" id="svg_8" fill="#0072C6"/>
<path d="M6730 4000 c0 -11 4 -20 9 -20 13 0 32 26 24 33 -13 14 -33 6 -33 -13z" id="svg_9" fill="#0072C6"/>
<path d="M4979 3844 c-15 -19 -25 -144 -15 -199 13 -68 73 -90 101 -35 19 36 20 184 2 220 -16 31 -67 39 -88 14z" id="svg_10" fill="#0072C6"/>
<path d="M5769 3838 c-7 -13 -14 -59 -16 -103 -3 -63 0 -87 14 -115 24 -47 64 -53 90 -14 25 40 26 188 0 227 -23 35 -71 38 -88 5z" id="svg_11" fill="#0072C6"/>
<path d="M6242 3049 c-32 -34 -42 -119 -22 -191 17 -61 69 -76 111 -32 22 23 24 34 24 114 0 72 -3 92 -19 109 -24 27 -70 27 -94 0z" id="svg_12" fill="#0072C6"/>
<path d="M5180 2928 c-50 -14 -60 -26 -60 -67 0 -44 14 -61 52 -61 35 0 59 34 66 95 5 50 3 51 -58 33z" id="svg_13" fill="#0072C6"/>
<path d="M5960 2930 c-62 -15 -91 -78 -52 -113 47 -43 102 -2 102 75 0 26 -3 48 -7 47 -5 -1 -24 -5 -43 -9z" id="svg_14" fill="#0072C6"/>
<path d="M6705 3055 c-16 -15 -25 -36 -25 -55 l0 -30 65 0 c65 0 65 0 65 29 0 35 -35 81 -61 81 -11 0 -31 -11 -44 -25z" id="svg_15" fill="#0072C6"/>
<path d="M5349 2324 c-22 -23 -24 -34 -24 -114 0 -102 15 -130 71 -130 53 0 74 36 74 127 0 101 -23 143 -79 143 -10 0 -28 -12 -42 -26z" id="svg_16" fill="#0072C6"/>
<path d="M6013 2195 c-37 -16 -51 -54 -34 -91 10 -23 25 -29 61 -25 28 4 50 42 50 87 0 39 -3 44 -22 44 -13 -1 -37 -7 -55 -15z" id="svg_17" fill="#0072C6"/>
<path d="M3371 3094 c0 -11 3 -14 6 -6 3 7 2 16 -1 19 -3 4 -6 -2 -5 -13z" id="svg_18" fill="#0072C6"/>
</g></g></svg>