<?xml version="1.0" encoding="utf-8"?>
<svg xmlns="http://www.w3.org/2000/svg" height="48" width="48" viewBox="0 0 48 48">
  <g>
    <ellipse cy="24" cx="24" ry="24" rx="24" fill="#0078D7" />
    <path id="path1" transform="rotate(0,24,24) translate(12.6249966099848,11) scale(0.812500242143942,0.812500242143942)  " fill="#FFFFFF" d="M14,2.0000019C9.5750105,2.0000019 5.9750196,5.5940018 5.9750196,10.011003 5.9750196,14.358988 9.4633896,17.908522 13.793194,18.018383L13.999398,18.020997 14,18.020989 14.000602,18.020997 14.206806,18.018383C18.53661,17.908522 22.024981,14.358988 22.024981,10.011003 22.024981,5.5940018 18.42499,2.0000019 14,2.0000019z M14,0C19.527987,0 24.024975,4.4910021 24.024975,10.011003 24.024975,13.806004 21.899445,17.114168 18.774664,18.811166L18.720785,18.839587 18.808857,18.870622C24.166975,20.833318,28,25.978122,28,31.99999L26,31.99999C26,25.498198,20.783909,20.189227,14.309253,20.024909L14.000621,20.020997 14,20.021005 13.999379,20.020997 13.690747,20.024909C7.2160913,20.189227,2.0000002,25.498198,2.0000004,31.99999L0,31.99999C1.7881237E-07,25.978122,3.8330259,20.833318,9.1911432,18.870622L9.279215,18.839587 9.2253363,18.811166C6.1005546,17.114168 3.9750246,13.806004 3.9750249,10.011003 3.9750246,4.4910021 8.4720137,0 14,0z" />
  </g>
</svg>

