<?xml version="1.0" encoding="utf-8"?>
<svg xmlns="http://www.w3.org/2000/svg" height="48" width="48" viewBox="0 0 48 48">
  <g>
    <rect height="48" width="48" fill="#0078D7" />
    <path id="path1" transform="rotate(0,24,24) translate(11,11) scale(0.8125,0.8125)  " fill="#FFFFFF" d="M9.9000245,6.000003L6.0000001,9.8999988 12.100037,16.000007 6.0000001,22.100002 9.9000245,25.999997 16,19.900018 22.100037,25.999997 26,22.100002 19.900024,16.000007 26,9.8999988 22.100037,6.000003 16,12.099997z M16,0C24.799988,0 32,7.2000005 32,16.000007 32,24.800016 24.799988,32.000001 16,32.000001 7.2000123,32.000001 8.3946347E-08,24.800016 0,16.000007 8.3946347E-08,7.2000005 7.2000123,0 16,0z" />
  </g>
</svg>

