<?xml version="1.0" encoding="utf-8"?>
<svg xmlns="http://www.w3.org/2000/svg" height="48" width="48" viewBox="0 0 48 48">
  <g>
    <path id="path1" transform="rotate(0,24,24) translate(14.2942793997398,11) scale(0.8125,0.8125)  " fill="#909090" d="M11.945504,0.99398804C10.951509,0.99398804,10.156516,1.8880005,10.156516,2.9809875L10.156516,3.2799988 10.156516,3.3789978 10.45451,3.3789978C10.85251,3.3789978 11.24951,3.2799988 11.647502,3.2799988 12.243499,3.2799988 12.740497,3.2799988 13.237495,3.3789978L13.535489,3.3789978 13.535489,3.2799988 13.535489,2.9809875C13.734485,1.8880005,12.939492,0.99398804,11.945504,0.99398804z M11.945504,0C13.436491,0,14.628484,1.2919922,14.628484,2.9809875L14.628484,3.5780029 14.42948,3.5780029 14.628484,3.677002C17.80846,4.5709839 20.193438,6.8569946 20.193438,9.7389832 20.193438,10.634003 19.995442,11.428986 19.597449,12.123993 19.398445,14.807007 19.398445,18.881989 21.485436,20.869995 24.765412,23.850983 23.870413,26.036987 23.473414,26.733002L13.237495,26.733002 12.343496,26.733002 12.343496,29.117981 12.442495,29.117981C12.939492,29.316986 13.336493,29.813995 13.336493,30.509003 13.336493,31.303986 12.641499,32 11.846506,32 11.051506,32 10.355512,31.303986 10.355512,30.509003 10.355512,29.912994 10.752512,29.415985 11.24951,29.117981L11.349508,29.117981 11.349508,26.733002 10.45451,26.733002 0.41758832,26.733002C0.020587989,26.036987 -0.87440217,23.751984 2.4055731,20.869995 4.7905499,18.78299 4.5915539,13.912994 4.2935597,11.328979 4.094556,10.733002 3.9955575,10.136993 3.9955575,9.6399841 3.9955575,6.8569946 5.9825427,4.4719849 9.0635216,3.5780029L9.3615238,3.4779968 9.3615238,3.3789978 9.3615238,2.9809875C9.3615238,1.2919922,10.554508,0,11.945504,0z" />
  </g>
</svg>

