<?xml version="1.0" encoding="utf-8"?>
<svg xmlns="http://www.w3.org/2000/svg" height="48" width="48" viewBox="0 0 48 48">
  <g>
    <rect height="48" width="48" fill="#0078D7" />
    <path id="path1" transform="rotate(0,24,24) translate(11,14.7310069661538) scale(0.812499321983289,0.812499321983289)  " fill="#FFFFFF" d="M14.487996,17.912004L15.889003,22.816001 10.985968,21.214009z M15.389001,13.809004L15.389001,15.11 28.598035,15.11 28.598035,13.809004z M13.687944,8.2049944L13.687944,9.5059902 28.69801,9.5059902 28.69801,8.2049944z M5.381943,8.0050127L13.287979,16.410997 9.7849749,19.713 1.8799158,11.307994z M2.4798937,6.1040098C2.9809332,6.1040098,3.4809352,6.3039915,3.8809002,6.6040103L0.37893328,9.9069921C-0.22208202,8.9060146 -0.12210605,7.6049878 0.77889842,6.8049991 1.2789003,6.4039976 1.8799158,6.1040098 2.4798937,6.1040098z M7.8839667,2.6019923L7.8839667,3.9029881 28.69801,3.9029881 28.69801,2.6019923z M6.5829366,0L29.799029,0C31.000022,-9.1422407E-08,32.000026,1.001008,32.000026,2.2019982L32.000026,15.11C32.000026,16.311021,31.000022,17.311998,29.799029,17.311998L28.198008,17.311998C28.198008,17.311998 27.397042,20.514028 31.60006,21.415029 31.60006,21.415029 24.494992,22.515006 23.393975,17.311998L15.988978,17.311998 4.3819392,5.1030018 4.3819392,2.2019982C4.3819392,1.001008,5.381943,-9.1422407E-08,6.5829366,0z" />
  </g>
</svg>

