<?xml version="1.0" encoding="utf-8"?>
<svg xmlns="http://www.w3.org/2000/svg" height="48" width="48" viewBox="0 0 48 48">
  <g>
    <path id="path1" transform="rotate(0,24,24) translate(11,11.1007450637115) scale(0.812500339040581,0.812500339040581)  " fill="#909090" d="M25.135491,14.378006C25.834496,14.378006,26.134484,14.777008,26.134484,15.675995L24.037499,15.675995C24.037499,15.277008 24.237481,14.977005 24.437493,14.777008 24.636498,14.477997 24.83648,14.378006 25.135491,14.378006z M18.845483,14.378006C19.544488,14.378006,19.844506,14.777008,19.844506,15.675995L17.747491,15.675995C17.747491,15.277008 17.946496,14.977005 18.146508,14.777008 18.246484,14.477997 18.546502,14.378006 18.845483,14.378006z M25.135491,13.180008C24.337487,13.180008 23.638482,13.479004 23.039483,13.979004 22.440484,14.578003 22.240502,15.277008 22.240502,16.274994 22.240502,17.173996 22.539483,17.973007 23.039483,18.472 23.538506,18.971008 24.337487,19.270996 25.235497,19.270996 26.134484,19.270996 26.833489,19.171005 27.332482,18.871002L27.332482,17.572998C26.833489,17.873001 26.23449,18.072006 25.635491,18.072006 24.636498,18.072006 24.137505,17.673004 24.037499,16.774002L27.831505,16.774002 27.831505,15.975998C27.831505,15.076996 27.6325,14.378006 27.1325,13.878998 26.633507,13.380005 26.034478,13.180008 25.135491,13.180008z M18.845483,13.180008C18.046502,13.180008 17.347497,13.479004 16.748498,13.979004 16.149499,14.578003 15.949486,15.277008 15.949486,16.274994 15.949486,17.173996 16.249505,17.973007 16.748498,18.472 17.248498,18.971008 18.046502,19.270996 18.945489,19.270996 19.844506,19.270996 20.542504,19.171005 21.042504,18.871002L21.042504,17.572998C20.542504,17.873001 19.943505,17.973007 19.344506,17.973007 18.34649,17.973007 17.847497,17.572998 17.747491,16.673996L21.541497,16.673996 21.541497,15.975998C21.541497,15.076996 21.341485,14.378006 20.842492,13.878998 20.343499,13.380005 19.644494,13.180008 18.845483,13.180008z M15.051507,13.180008C14.352502,13.180008,13.753503,13.578995,13.55349,14.378006L13.55349,13.279999 11.756493,13.279999 11.756493,19.070999 13.55349,19.070999 13.55349,16.274994C13.55349,15.776001 13.653496,15.376999 13.853478,15.076996 14.052483,14.777008 14.352502,14.677994 14.751488,14.677994 15.051507,14.677994 15.251488,14.777008 15.5505,14.876999L15.5505,13.180008z M5.765496,10.983002L5.765496,19.171005 7.562493,19.171005 7.562493,15.975998 10.258507,15.975998 10.258507,14.477997 7.6624991,14.477997 7.6624991,12.481003 10.558495,12.481003 10.558495,10.983002z M19.544488,1.2027357E-10C19.844506,-7.118814E-08,20.143487,0.10000603,20.343499,0.39900188L22.440484,3.1950073 25.934502,3.2949981C26.433495,3.2949981,26.833489,3.6940002,26.933495,4.0939941L27.532494,7.5879974 30.627495,9.3860015C31.026482,9.5850066,31.226494,10.085007,31.126488,10.584L29.92849,13.979004 31.825494,16.973999C32.125481,17.373001,32.025506,17.873001,31.626488,18.272003L29.129479,20.667999 29.429497,24.162994C29.429497,24.662002,29.129479,25.061996,28.730492,25.261002L25.335503,26.259994 23.937493,29.455002C23.738488,29.854004,23.238488,30.154007,22.839501,30.054001L19.344506,29.354996 16.648492,31.552002C16.449486,31.751999 16.249505,31.751999 16.049493,31.751999 15.850487,31.751999 15.5505,31.652008 15.450494,31.552002L12.754479,29.354996 9.160485,29.953995C8.661492,30.054001,8.2614982,29.755005,8.062493,29.354996L6.6644828,26.160004 3.269494,25.162002C2.7705008,25.061996,2.4704825,24.561996,2.5704886,24.063003L2.8694999,20.569 0.37349775,18.171997C-0.025519672,17.873001,-0.12549526,17.373001,0.17449271,16.973999L1.9714895,13.979004 0.87349754,10.684006C0.67348546,10.184006,0.87349766,9.6849975,1.3724907,9.4850005L4.4674918,7.6880035 4.9664847,4.1940002C5.0664908,3.6940002,5.4664847,3.3950042,5.9655082,3.3950042L9.4594962,3.2949981 11.556481,0.49900796C11.856499,0.10000603,12.355492,-7.118814E-08,12.754479,0.19999686L15.949486,1.5980069 19.145501,0.10000605C19.2445,-7.118814E-08,19.444482,-7.118814E-08,19.544488,1.2027357E-10z" />
  </g>
</svg>

